# xmcd CD database file
#
# Track frame offsets:
#	150
#	11545
#	22610
#	34295
#	45110
#	56657
#	68890
#	79517
#	90690
#	100545
#	110555
#	119772
#	131370
#	143267
#
# Disc length: 2054 seconds
#
# Revision: 0
# Processed by: cddbd v1.5PL3 Copyright (c) Steve Scherf et al.
# Submitted via: CDex 1.40Release
#
DISCID=a208040e
DTITLE=Patsy Cline - Sincerely Yours
DYEAR=1900
DGENRE=Country
TTITLE0=Walking After Midnight
TTITLE1=Hungry For Love
TTITLE2=I've Loved And Lost Again
TTITLE3=I Can't Forget
TTITLE4=Let The Teardrops Fall
TTITLE5=Fingerprints
TTITLE6=I Can See An Angel
TTITLE7=Just Out Of Reach
TTITLE8=Three Cigarettes In An Ashtray
TTITLE9=Too Many Secrets
TTITLE10=I Love You Honey
TTITLE11=Never No More
TTITLE12=Today, Tomorrow and Forever
TTITLE13=Stop The World (And Let Me Off)
EXTD=ID3G: 2
EXTT0=
EXTT1=
EXTT2=
EXTT3=
EXTT4=
EXTT5=
EXTT6=
EXTT7=
EXTT8=
EXTT9=
EXTT10=
EXTT11=
EXTT12=
EXTT13=
PLAYORDER=
